<?xml version="1.0" standalone="no"?>
<!DOCTYPE svg PUBLIC "-//W3C//DTD SVG 20010904//EN"
 "http://www.w3.org/TR/2001/REC-SVG-20010904/DTD/svg10.dtd">
<svg version="1.0" xmlns="http://www.w3.org/2000/svg"
 width="24.000000pt" height="24.000000pt" viewBox="0 0 24.000000 24.000000"
 preserveAspectRatio="xMidYMid meet">

<g transform="translate(0.000000,24.000000) scale(0.100000,-0.100000)"
fill="#000000" stroke="none">
<path d="M52 188 c-16 -16 -15 -33 3 -48 12 -10 21 -10 45 0 43 18 45 27 11
45 -36 18 -43 19 -59 3z"/>
<path d="M149 198 c-9 -19 -5 -60 6 -64 12 -5 75 21 75 31 0 11 -77 42 -81 33z"/>
<path d="M32 94 c-42 -29 -28 -44 43 -44 50 0 65 3 65 14 0 19 -38 46 -65 46
-11 0 -31 -7 -43 -16z"/>
<path d="M138 105 c-3 -4 -1 -17 6 -30 9 -20 19 -25 49 -25 43 0 50 20 15 44
-22 16 -59 21 -70 11z"/>
</g>
</svg>
